<svg xmlns="http://www.w3.org/2000/svg" viewBox="0 0 192 192"><defs><clipPath id="b"><path style="fill:none" d="M54.2 30.4h83.6v130.85H54.2z"/></clipPath><filter id="a" x="54.2" y="30.4" width="83.6" height="130.85" filterUnits="userSpaceOnUse"><feOffset/><feGaussianBlur result="blur" stdDeviation="16"/><feFlood flood-color="#444" flood-opacity=".6"/><feComposite in2="blur" operator="in"/><feComposite in="SourceGraphic"/></filter></defs><g style="filter:url(#a)"><g style="clip-path:url(#b)"><path d="M54.2 37.79v80.42c0 .39 0 .79.04 1.18h14.14c0-.39-.04-.79-.04-1.18 0-1.18.07-2.33.21-3.47V37.79c0-4.08-3.21-7.39-7.17-7.39s-7.17 3.31-7.17 7.39h-.02Z" style="fill:#4672b3"/><path d="M100.53 77.66v16.41c0 4.12 3.21 7.46 7.17 7.46s7.17-3.34 7.17-7.46V77.66c0-4.12-3.21-7.46-7.17-7.46s-7.17 3.34-7.17 7.46Z" style="fill:#f5d971"/><path d="m123.44 110.08.21 8.12c0 15.71-12.39 28.48-27.66 28.48-15.26 0-27.02-12.13-27.62-27.3 0-.39-.04-.79-.04-1.18 0-1.18.07-2.33.21-3.47 1.27-10.73 8.33-19.62 17.85-23.26.3-.11.61-.22.93-.31.04 0 .05-.04.09-.04.86-.39 1.62-.97 2.28-1.67 1.3-1.41 2.1-3.36 2.1-5.53v-8.56c-5.12.53-9.95 2-14.35 4.26a40.818 40.818 0 0 0-8.9 6.12c-8.79 7.86-14.35 19.49-14.35 32.46 0 .39 0 .79.04 1.18.59 23.24 19.08 41.87 41.76 41.87s41.8-19.27 41.8-43.05c0-1.07.02-2.02 0-3.14v-13.71l-14.35 8.73Z" style="fill:#0d2847"/><path d="M123.44 93.14v17.18c0 3.69 3.21 6.69 7.17 6.69s7.19-2.99 7.19-6.69V93.14c0-4.13-3.21-7.48-7.17-7.48s-7.17 3.34-7.17 7.48h-.02Z" style="fill:#6bc0a5"/><path d="M77.44 68.21v15.73c0 4.32 3.21 7.81 7.17 7.81.62 0 1.23-.09 1.8-.26.3-.11.61-.22.93-.31.04 0 .05-.04.09-.04.86-.39 1.62-.97 2.28-1.67 1.3-1.41 2.1-3.36 2.1-5.53V68.21c0-4.32-3.21-7.81-7.19-7.81-1.98 0-3.78.88-5.08 2.28-1.28 1.41-2.09 3.36-2.09 5.53h-.02Z" style="fill:#ea6f39"/></g></g></svg>